<?xml version="1.0" encoding="utf-8"?>
<!-- Generator: Adobe Illustrator 15.0.0, SVG Export Plug-In . SVG Version: 6.00 Build 0)  -->
<!DOCTYPE svg PUBLIC "-//W3C//DTD SVG 1.1//EN" "http://www.w3.org/Graphics/SVG/1.1/DTD/svg11.dtd">
<svg version="1.1" id="Layer_1" xmlns="http://www.w3.org/2000/svg" xmlns:xlink="http://www.w3.org/1999/xlink" x="0px" y="0px"
	 width="512px" height="512px" viewBox="0 0 512 512" enable-background="new 0 0 512 512" xml:space="preserve">
<g>
	<path fill="#592B8C" d="M359.771,411.022c0.002,0.039,0.004,0.078,0.007,0.117C359.738,410.269,359.757,410.7,359.771,411.022z"/>
	<path fill="#592B8C" d="M504.561,222.733c-4.768-34.588-16.979-68.13-35.462-97.748c-17.599-28.202-40.945-52.701-68.146-71.8
		c-28.365-19.922-60.839-34.103-94.852-40.904c-36.109-7.222-73.806-6.445-109.554,2.406c-33.425,8.274-64.98,23.534-92.213,44.604
		c-26.492,20.494-48.764,46.362-65.161,75.566C21.819,165.759,11.337,200.32,8.311,235.62c-3.07,35.821,1.643,72.113,13.797,105.949
		c11.499,32.008,29.578,61.496,52.836,86.306c22.992,24.527,50.917,44.379,81.688,57.936
		c32.874,14.483,68.904,21.628,104.811,21.061c35.492-0.562,70.724-8.844,102.797-24.045c30.301-14.361,57.556-34.917,79.798-59.999
		c22.47-25.333,39.754-55.222,50.349-87.391c11.437-34.737,15.091-72.018,10.744-108.324
		C504.95,225.653,504.761,224.192,504.561,222.733C500.018,189.776,509.391,257.74,504.561,222.733z M442.936,286.77
		c-5.327,33.158-19.704,64.792-41.141,90.644c-11.998,14.464-26.183,27.103-41.918,37.378c-0.3-0.312-0.039-1.204-0.048-1.594
		c-0.02-0.872-0.034-1.74-0.078-2.614c-0.096-1.878-0.257-3.758-0.473-5.625c-0.421-3.562-1.062-7.094-1.919-10.575
		c-1.701-6.891-4.244-13.566-7.521-19.861c-6.563-12.607-16.021-23.65-27.345-32.226c-13.126-9.939-28.816-16.524-45.092-19.005
		c-9.148-1.393-18.421-1.509-27.593-2.679c-8.768-1.12-17.182-3.482-24.829-8.001c-13.781-8.135-24.137-21.57-28.588-36.931
		c-4.506-15.56-2.749-32.672,4.7-47.049c7.178-13.851,19.608-24.583,34.209-29.998c15.855-5.885,33.788-5.109,49.055,2.193
		c13.92,6.662,25.33,18.462,31.301,32.713c6.628,15.813,6.35,34.134-0.455,49.834c-2.734,6.3-6.484,12.167-11.097,17.255
		c20.312,5.833,38.665,18.327,51.409,35.196c20.231-25.917,30.315-59.429,26.639-92.196c-3.432-30.589-18.386-59.558-41.448-79.963
		c-24.536-21.708-57.63-33.508-90.388-31.664c-32.583,1.836-63.778,16.99-85.75,41.048c-21.804,23.872-33.871,55.589-33.01,87.942
		c0.863,32.477,14.296,63.967,37.429,86.811c10.634,10.498,23.137,19.101,36.787,25.189c8.113,3.616,16.625,6.351,25.337,8.092
		c9.238,1.843,18.646,2.35,28.034,2.786c4.561,0.213,9.179,0.317,13.618,1.493c4.056,1.074,7.846,3.041,11.103,5.683
		c6.087,4.945,10.203,12.185,11.119,19.994c1.121,9.538-2.522,18.789-9.411,25.393c-11.017,10.561-26.988,9.44-41.109,8.439
		c-17.683-1.252-35.181-4.914-51.829-11.024c-30.642-11.245-58.114-30.547-79.153-55.489
		c-21.633-25.649-36.176-56.855-41.681-89.965c-5.768-34.688-1.832-70.87,11.711-103.348c12.608-30.238,33.17-57.008,59.124-76.999
		c26.746-20.6,58.837-33.625,92.356-37.623c34.651-4.132,70.073,1.451,101.683,16.259c29.63,13.879,55.442,35.415,74.275,62.177
		c19.62,27.88,31.362,60.968,33.828,94.967C445.81,258.153,445.218,272.591,442.936,286.77
		C438.007,317.458,448.099,254.649,442.936,286.77z"/>
	<path fill="#592B8C" d="M359.778,411.139c0,0.032,0,0.065,0,0.098C359.781,411.265,359.781,411.258,359.778,411.139z"/>
</g>
</svg>
